<svg xmlns="http://www.w3.org/2000/svg" width="100%" height="100%" viewBox="0 0 93 34">
  <g id="logo" transform="translate(0)">
    <path id="パス_6" data-name="パス 6" d="M375.186,174.583a17.029,17.029,0,0,0,12.09-4.981,16.926,16.926,0,0,0,0-24.039,17.116,17.116,0,0,0-29.185,12.018A16.834,16.834,0,0,0,363.1,169.6a17.022,17.022,0,0,0,12.084,4.981m-14.753-17a14.525,14.525,0,0,1,4.324-10.372,14.808,14.808,0,0,1,20.863,0,14.53,14.53,0,0,1,4.32,10.372,14.767,14.767,0,0,1-25.183,10.374,14.528,14.528,0,0,1-4.324-10.374" transform="translate(-358.091 -140.583)" fill="#383e44"/>
    <path id="パス_7" data-name="パス 7" d="M419.837,174.583a17.027,17.027,0,0,0,12.092-4.981,16.927,16.927,0,0,0,0-24.039,17.114,17.114,0,0,0-29.182,12.018,16.852,16.852,0,0,0,5.005,12.02,17.034,17.034,0,0,0,12.085,4.981m-14.751-17a14.529,14.529,0,0,1,4.324-10.372,14.808,14.808,0,0,1,20.863,0,14.522,14.522,0,0,1,4.322,10.372,14.769,14.769,0,0,1-25.185,10.374,14.533,14.533,0,0,1-4.324-10.374" transform="translate(-352.924 -140.583)" fill="#383e44"/>
    <rect id="長方形_60" data-name="長方形 60" width="2.341" height="31.448" transform="translate(40.837 1.276)" fill="#383e44"/>
    <rect id="長方形_61" data-name="長方形 61" width="2.341" height="31.448" transform="translate(90.659 1.276)" fill="#383e44"/>
  </g>
</svg>
