<svg xmlns="http://www.w3.org/2000/svg" width="221.391" height="39.857" viewBox="0 0 221.391 39.857">
  <g id="logo" transform="translate(-41.343 -34.607)">
    <g id="グループ_2643" data-name="グループ 2643" transform="translate(84.261 34.607)">
      <g id="グループ_2642" data-name="グループ 2642">
        <g id="グループ_2641" data-name="グループ 2641" transform="translate(0 3.889)">
          <path id="パス_2980" data-name="パス 2980" d="M102.656,54.342c-5.106,0-6.728-1.118-7.185-1.6a1.813,1.813,0,0,1-.362-1.146c0-.926,1.606-2.694,7.673-2.694,6.622,0,7.753,2.686,7.765,2.718l3.08-1c-.157-.513-1.76-4.963-10.845-4.963-10.121,0-10.907,4.546-10.907,5.942a4.447,4.447,0,0,0,1.25,3.4c1.677,1.753,4.792,2.6,9.531,2.6,6.564,0,8.092,1.672,8.126,2.371a2.133,2.133,0,0,1-.7,1.586c-.848.848-2.8,1.87-7.3,1.87-6.551,0-8.38-2.873-8.451-3l-2.82,1.612c.108.184,2.659,4.644,11.271,4.644,4.508,0,7.731-.956,9.6-2.843a5.425,5.425,0,0,0,1.644-3.856C114.023,58.652,113.206,54.342,102.656,54.342Z" transform="translate(-91.511 -40.092)" fill="#353535"/>
          <path id="パス_2981" data-name="パス 2981" d="M178.212,45.637c-6.8,0-12.332,4.766-12.332,10.617s5.534,10.612,12.332,10.612,12.329-4.757,12.329-10.612S185.011,45.637,178.212,45.637Zm0,17.98c-5.016,0-9.1-3.307-9.1-7.363s4.08-7.362,9.1-7.362,9.089,3.3,9.089,7.362S183.222,63.617,178.212,63.617Z" transform="translate(-102.258 -40.09)" fill="#353535"/>
          <path id="パス_2982" data-name="パス 2982" d="M229.6,52.237c-2.07-5.476-9.292-8.2-16.094-6.065a13.742,13.742,0,0,0-8.148,6.426,9.215,9.215,0,0,0-.583,7.618,9.785,9.785,0,0,0,4.248,4.909v10.9h3.232V66.49a15.411,15.411,0,0,0,8.608-.211,13.614,13.614,0,0,0,8.307-6.734,9.241,9.241,0,0,0,.429-7.305ZM207.8,59.062a5.948,5.948,0,0,1,.413-4.937,8.03,8.03,0,0,1,.8-1.216v8.117A6.106,6.106,0,0,1,207.8,59.062Zm18.446-.944a10.326,10.326,0,0,1-6.35,5.049,12.061,12.061,0,0,1-7.646-.05v-12.9a12.929,12.929,0,0,1,2.213-.941c5.2-1.626,10.627.216,12.1,4.11a5.586,5.586,0,0,1,.358,1.968A6.214,6.214,0,0,1,226.248,58.118Z" transform="translate(-107.796 -40.062)" fill="#353535"/>
          <path id="パス_2983" data-name="パス 2983" d="M141.85,45.146a15.584,15.584,0,0,0-7.15,3.136V39.153h-3.243V51.192c-1.988,1.9-5.225,5-5.225,5l2.234,2.347,2.991-2.856v9.639H134.7V52.583l.523-.507a13.451,13.451,0,0,1,6.965-3.692A7.053,7.053,0,0,1,147.63,49.7a4.285,4.285,0,0,1,1.325,3.319V65.3H152.2V53.017a7.5,7.5,0,0,0-2.4-5.738A10.077,10.077,0,0,0,141.85,45.146Z" transform="translate(-96.528 -39.153)" fill="#353535"/>
          <path id="パス_2984" data-name="パス 2984" d="M294.218,48.278a10.059,10.059,0,0,0-7.94-2.134,15.7,15.7,0,0,0-7.149,3.133V47.745h-3.237V66.32h3.237V53.6l.555-.555c1.665-1.617,4.6-3.412,6.944-3.662a7.035,7.035,0,0,1,5.43,1.314,4.273,4.273,0,0,1,1.329,3.319V66.3h3.241V54.016A7.471,7.471,0,0,0,294.218,48.278Z" transform="translate(-118.155 -40.152)" fill="#353535"/>
        </g>
        <path id="パス_2985" data-name="パス 2985" d="M266.908,38.188a4.161,4.161,0,0,0-3.189-3.419,4.241,4.241,0,0,0-3.79.7c-2.626,2.057-2.845,7.184-2.845,11.828V49.76a39.2,39.2,0,0,1-4.383,3.529l1.84,2.685q1.323-.915,2.543-1.909V64.577h3.237V51.112c4.084-4.12,6.67-8.575,6.67-11.905A5.978,5.978,0,0,0,266.908,38.188Zm-6.584,8.082c.027-2.516.215-7.151,1.6-8.232.115-.086.353-.275,1.012-.109a.913.913,0,0,1,.786.832,2.775,2.775,0,0,1,.039.483C263.758,40.82,262.6,43.413,260.324,46.27Z" transform="translate(-114.804 -34.607)" fill="#353535"/>
      </g>
    </g>
    <path id="パス_2986" data-name="パス 2986" d="M68.869,52.048c0-5.674-6.172-10.294-13.766-10.294a17.971,17.971,0,0,0-4.145.48V38.679H49.171v4.086c-4.627,1.658-7.828,5.2-7.828,9.283a7.873,7.873,0,0,0,.506,2.749,7.884,7.884,0,0,0-.506,2.754c0,4.082,3.2,7.618,7.828,9.276v4.742h1.788v-4.21a18.114,18.114,0,0,0,4.145.477c7.593,0,13.766-4.615,13.766-10.286a7.828,7.828,0,0,0-.508-2.754A7.817,7.817,0,0,0,68.869,52.048Zm-25.732,0c0-4.683,5.371-8.493,11.967-8.493s11.974,3.81,11.974,8.493c0,.129-.02.262-.029.4-2.377-3.1-6.839-5.188-11.945-5.188s-9.564,2.092-11.939,5.188C43.156,52.31,43.137,52.177,43.137,52.048ZM49.171,59.4A9.989,9.989,0,0,1,43.795,54.8a9.995,9.995,0,0,1,5.376-4.611Zm1.791-.3h0c0-1.942,2.487-3.582,5.331-3.582,2.892,0,5.244,1.707,5.244,3.683l.206-.1a15.57,15.57,0,0,1-6.64,1.43A16.353,16.353,0,0,1,50.959,60Zm12.273-.844c-.537-2.567-3.437-4.535-6.941-4.535A8.051,8.051,0,0,0,50.959,55.6V49.59a16.51,16.51,0,0,1,4.145-.533c5.244,0,9.7,2.406,11.316,5.74A8.919,8.919,0,0,1,63.234,58.261Zm-20.1-.711c0-.137.019-.267.027-.4a13.041,13.041,0,0,0,6.006,4.177v3.583C45.573,63.442,43.137,60.7,43.137,57.55Zm23.941,0c0,4.677-5.373,8.488-11.974,8.488a16.277,16.277,0,0,1-4.145-.538V61.856a18.114,18.114,0,0,0,4.145.478c5.106,0,9.567-2.093,11.945-5.186C67.058,57.283,67.078,57.413,67.078,57.55Z" transform="translate(0 -0.588)" fill="#fa002d"/>
  </g>
</svg>
