<svg xmlns="http://www.w3.org/2000/svg" width="130px" height="27px" viewBox="0 0 130 27"><path style="fill-rule:evenodd;clip-rule:evenodd;fill:none;" d="M0,0h130v27H0V0z"/><path style="fill:#2eb6aa;" d="M13.11,7.18c-3.49,0-6.32,2.83-6.32,6.32C10.28,13.5,13.11,10.67,13.11,7.18z"/><path style="fill:#2eb6aa;" d="M13.08,0.39C5.89,0.41,0.02,6.28,0,13.47c-0.02,7.24,5.87,13.14,13.11,13.14c1.04,0,2.06-0.12,3.06-0.36c0.18-0.04,0.29-0.23,0.24-0.41l-0.71-2.64c-0.05-0.17-0.22-0.28-0.39-0.24c-0.72,0.17-1.46,0.25-2.21,0.25c-5.36,0-9.71-4.36-9.71-9.71c0-5.3,4.27-9.63,9.56-9.71c5.29-0.08,9.65,4.03,9.86,9.32c0.1,2.62-0.84,5.14-2.62,7.04c-0.06,0.06-0.16,0.13-0.31,0.13c-0.25,0-0.45-0.22-0.45-0.47v-6.3c0,0,0-0.01,0-0.01l0,0c-3.49,0-6.32,2.83-6.32,6.32c1.06,0,2.05-0.26,2.92-0.72v0.66c0,2.14,1.75,3.93,3.9,3.91c0.99-0.01,1.92-0.4,2.63-1.09c0.03-0.02,0.05-0.05,0.07-0.07c2.31-2.44,3.58-5.64,3.58-9.01C26.22,6.26,20.32,0.37,13.08,0.39z"/><path style="fill:#2eb6aa;" d="M19.43,13.5c0,0,0-0.01,0-0.01V7.51c0-0.18-0.15-0.33-0.33-0.33h-2.74c-0.18,0-0.33,0.15-0.33,0.33V7.9c-0.87-0.46-1.87-0.72-2.92-0.72C13.11,10.67,15.94,13.5,19.43,13.5z"/><path style="fill:#2eb6aa;" d="M6.79,13.5L6.79,13.5c0,3.49,2.83,6.32,6.32,6.32C13.11,16.33,10.28,13.5,6.79,13.5z"/><path style="fill:#2eb6aa;" d="M58.17,23.22c-5.36,0-9.72-4.36-9.72-9.72s4.36-9.72,9.72-9.72s9.72,4.36,9.72,9.72S63.52,23.22,58.17,23.22z M58.17,7.18c-3.48,0-6.32,2.84-6.32,6.32s2.84,6.32,6.32,6.32c3.48,0,6.32-2.84,6.32-6.32S61.65,7.18,58.17,7.18z"/><path style="fill:#2eb6aa;" d="M120.14,23.22c-5.38,0-9.76-4.4-9.72-9.79c0.04-5.28,4.35-9.6,9.64-9.64c5.39-0.04,9.79,4.33,9.79,9.72v1.37c0,0.18-0.15,0.33-0.33,0.33h-15.47c0.74,2.66,3.19,4.62,6.09,4.62c1.58,0,3.08-0.58,4.24-1.63c0.13-0.12,0.33-0.12,0.46,0.01l1.94,1.94c0.13,0.13,0.13,0.35-0.01,0.47C124.96,22.29,122.62,23.22,120.14,23.22z M114.05,11.8h12.18c-0.74-2.66-3.19-4.62-6.09-4.62C117.24,7.18,114.79,9.14,114.05,11.8z"/><path style="fill:#2eb6aa;" d="M100.68,3.78c-1.56,0-2.98,0.63-4.01,1.65c-1.03-1.02-2.45-1.65-4.01-1.65c-3.15,0-5.71,2.56-5.71,5.71v12.55c0,0.18,0.15,0.33,0.33,0.33h2.74c0.18,0,0.33-0.15,0.33-0.33V9.49c0-1.27,1.04-2.31,2.31-2.31s2.31,1.04,2.31,2.31v12.55c0,0.18,0.15,0.33,0.33,0.33h2.74c0.18,0,0.33-0.15,0.33-0.33V9.49c0-1.27,1.04-2.31,2.31-2.31s2.31,1.04,2.31,2.31v12.55c0,0.18,0.15,0.33,0.33,0.33h2.74c0.18,0,0.33-0.15,0.33-0.33V9.49C106.39,6.34,103.83,3.78,100.68,3.78z"/><path style="fill:#2eb6aa;" d="M39.16,23.22c-5.36,0-9.72-4.36-9.72-9.72c0-5.36,4.33-9.71,9.7-9.72c2.49,0,4.83,0.92,6.64,2.61c0.14,0.13,0.14,0.34,0.01,0.47L43.86,8.8c-0.13,0.13-0.33,0.13-0.46,0.01c-1.2-1.08-2.74-1.66-4.37-1.63c-3.34,0.07-6.07,2.75-6.19,6.09c-0.13,3.59,2.75,6.55,6.32,6.55c1.58,0,3.08-0.58,4.24-1.63c0.13-0.12,0.33-0.12,0.46,0.01l1.94,1.94c0.13,0.13,0.13,0.35-0.01,0.47C43.98,22.29,41.64,23.22,39.16,23.22z"/><path style="fill:#2eb6aa;" d="M76.81,11.8c-1.3,0-2.35-1.08-2.31-2.39c0.04-1.25,1.12-2.27,2.37-2.23c0.49,0.01,0.95,0.18,1.34,0.47c0.13,0.1,0.32,0.09,0.44-0.03l1.93-1.95c0.14-0.14,0.13-0.36-0.02-0.49c-1.07-0.93-2.42-1.43-3.86-1.41c-2.96,0.05-5.43,2.42-5.59,5.38c-0.19,3.29,2.44,6.03,5.7,6.03c1.3,0,2.35,1.08,2.31,2.39c-0.04,1.25-1.12,2.27-2.37,2.23c-0.49-0.01-0.95-0.18-1.34-0.47c-0.13-0.1-0.32-0.09-0.44,0.03l-1.93,1.95c-0.14,0.14-0.13,0.36,0.02,0.49c1.07,0.93,2.42,1.43,3.86,1.41c2.96-0.05,5.43-2.42,5.6-5.38C82.7,14.54,80.07,11.8,76.81,11.8z"/></svg>
