<svg xmlns="http://www.w3.org/2000/svg" width="144.1" height="144.1" viewBox="-20 -21.869858 134.447997 134.447997">
                            <rect x="-20" y="-21.869858" width="134.447997" height="134.447997" style="fill:#ffffff;stroke:none;"/>
                            <g style="fill:#006b30;fill-opacity:1;fill-rule:nonzero;stroke:none" transform="matrix(1.3333333,0,0,-1.3333333,-241.91021,724.26426)">
                              <g transform="translate(188.3776,482.7521)">
                                <path d="M 0,0 H -4.826 V 4.758 H -6.945 V -7.389 h 2.119 v 5.436 H 0 V -7.389 H 2.104 V 4.758 H 0 Z"/>
                              </g>
                              <g transform="translate(200.4978,480.9453)">
                                <path d="M 0,0 0.432,1.205 C 0.718,2.003 0.955,2.687 1.167,3.331 1.4,2.629 1.643,1.941 1.922,1.213 L 2.338,0 Z M 0.28,6.565 -4.185,-5.582 h 2.2 l 1.314,3.689 H 2.993 L 4.274,-5.582 H 6.525 L 2.077,6.565 Z"/>
                              </g>
                              <g transform="translate(219.7852,480.4206)">
                                <path d="M 0,0 C 0,-0.345 0.006,-0.696 0.017,-1.046 L -5.038,7.09 H -6.929 V -5.057 h 2.072 v 7.165 c 0,0.334 -0.008,0.661 -0.019,0.983 L 0.181,-5.057 H 2.072 V 7.09 H 0 Z"/>
                              </g>
                              <g transform="translate(230.9796,485.588)">
                                <path d="m 0,0 h 1.092 c 2.519,0 3.797,-1.384 3.797,-4.113 0,-2.77 -1.278,-4.174 -3.797,-4.174 H 0 Z M 1.186,1.922 H -2.12 v -12.147 h 3.322 c 3.665,0 5.854,2.285 5.854,6.112 0,3.835 -2.139,6.035 -5.87,6.035"/>
                              </g>
                              <g transform="translate(249.4886,482.195)">
                                <path d="m 0,0 -1.727,0.724 c -0.937,0.387 -1.6,0.722 -1.6,1.522 0,0.946 0.964,1.283 1.867,1.283 0.898,0 1.677,-0.314 2.313,-0.934 L 1.285,2.174 2.602,3.612 2.219,4.008 c -0.923,0.956 -2.264,1.503 -3.679,1.503 -2.32,0 -4.003,-1.404 -4.003,-3.34 0,-2.151 1.893,-2.942 2.701,-3.281 l 1.723,-0.721 c 1.196,-0.507 1.683,-0.801 1.683,-1.69 0,-0.939 -0.836,-1.523 -2.183,-1.523 -1.114,0 -2.147,0.452 -2.91,1.273 l -0.429,0.463 -1.385,-1.496 0.373,-0.397 c 1.104,-1.178 2.65,-1.827 4.351,-1.827 2.502,0 4.319,1.5 4.319,3.567 C 2.78,-1.456 1.445,-0.613 0,0"/>
                              </g>
                              <g transform="translate(233.5634,517.9052)">
                                <path d="m 0,0 c -0.355,-1.574 -4.759,-4.92 -13.582,-8.611 0.137,1.667 0.238,3.548 0.305,5.74 0.009,0.292 0.017,0.588 0.024,0.887 1.172,0.422 2.376,0.836 3.546,1.204 1.957,0.616 4.023,1.227 5.875,1.524 2.799,0.449 3.54,-0.093 3.701,-0.27 C 0.011,0.317 0.044,0.197 0,0 m -20.245,-2.279 -0.026,-0.01 c -3.339,-1.325 -6.566,-2.13 -9.088,-2.265 -2.271,-0.122 -3.805,0.311 -4.203,1.189 -0.125,0.276 -0.13,0.533 -0.014,0.834 0.297,0.773 1.644,2.439 7.333,4.919 0.738,0.322 1.453,0.631 2.147,0.932 3.175,1.374 5.912,2.56 8.361,3.824 0.209,-2.234 0.305,-4.774 0.282,-7.566 -1.856,-0.692 -3.548,-1.363 -4.792,-1.857 M -17,-15.952 c -0.493,-1.952 -1.688,-2.811 -2.638,-2.981 -0.936,-0.168 -2.196,0.476 -1.751,2.316 0.207,0.85 1.295,2.399 5.153,4.373 -0.217,-1.393 -0.471,-2.549 -0.764,-3.708 m -7.432,31.026 c -0.207,0 -0.314,0.079 -0.37,0.158 -0.067,0.073 -0.157,0.228 -0.064,0.472 0.27,0.711 2.59,2.535 5.496,2.018 -2.392,-1.701 -4.347,-2.648 -5.062,-2.648 M 1.516,1.968 c -2.029,2.236 -7.201,0.849 -11.89,-0.627 -0.942,-0.296 -1.903,-0.621 -2.85,-0.954 0.002,2.611 -0.1,5.351 -0.386,7.921 3.623,2.112 6.633,4.62 9.614,8.585 l -1.777,1.336 c -2.559,-3.404 -5.105,-5.644 -8.167,-7.534 -0.475,2.803 -1.231,5.245 -2.392,6.87 2.277,1.872 5.067,4.61 6.129,6.734 l -1.989,0.994 c -0.752,-1.504 -2.95,-3.879 -5.599,-6.049 0,0 -0.099,-0.081 -0.148,-0.12 -0.861,0.535 -1.699,0.671 -2.364,0.67 -2.733,-0.02 -4.757,-1.304 -5.739,-2.499 -0.632,-0.769 -0.905,-1.588 -0.768,-2.307 0.156,-0.821 0.645,-1.419 1.377,-1.685 0.272,-0.099 0.57,-0.144 0.89,-0.144 1.861,0 4.417,1.545 6.455,3.04 0.929,-1.348 1.63,-3.641 2.074,-6.693 -2.537,-1.362 -5.445,-2.622 -8.965,-4.146 -0.695,-0.301 -1.412,-0.611 -2.152,-0.934 -5.044,-2.198 -7.75,-4.155 -8.521,-6.16 -0.328,-0.853 -0.305,-1.735 0.065,-2.55 0.573,-1.261 2.136,-2.716 6.347,-2.49 2.757,0.148 6.233,1.006 9.789,2.418 l 0.026,0.01 c 1.047,0.415 2.414,0.958 3.925,1.531 -0.072,-2.318 -0.179,-4.28 -0.33,-5.998 0,0 -0.049,-0.541 -0.074,-0.798 -4.427,-2.038 -6.923,-4.124 -7.609,-6.351 -0.386,-1.25 -0.179,-2.532 0.596,-3.709 0.637,-0.967 1.726,-1.515 2.945,-1.515 0.231,0 0.466,0.02 0.704,0.06 1.644,0.278 3.669,1.641 4.424,4.63 0.406,1.607 0.742,3.204 1.008,5.369 0.186,0.079 0.377,0.159 0.572,0.239 4.338,1.786 14.525,6.373 15.433,10.399 0.206,0.91 -0.021,1.76 -0.653,2.457"/>
                              </g>
                            </g>
                          </svg>
