<svg width="184" height="38" viewBox="0 0 184 38" fill="none" xmlns="http://www.w3.org/2000/svg">
<g clip-path="url(#clip0_6454_23678)">
<g clip-path="url(#clip1_6454_23678)">
<path d="M69.6165 21.4035C71.6845 18.3466 73.1368 14.3339 73.4677 9.04297H51.8678C50.8577 9.04476 49.8896 9.43951 49.1758 10.1406C48.4621 10.8417 48.0609 11.792 48.0602 12.7829C48.0609 13.0584 48.0933 13.3329 48.1568 13.6012H65.7101C64.8438 19.0432 61.1512 27.2986 46.6172 26.3946V30.8582C46.6172 30.8582 57.5481 31.9696 65.478 25.8152C68.4974 27.1678 69.6578 30.8582 69.6578 30.8582H76.8961C75.3221 25.5425 71.0687 22.3593 69.6165 21.4035Z" fill="#E60020"/>
<path d="M105.944 21.0113H96.4511L96.0421 15.7384H106.04L105.948 11.4551H95.6997L95.3642 7.17188H87.8525L88.1926 11.4551H81.106C80.2845 11.4563 79.4968 11.7767 78.9155 12.3462C78.3341 12.9157 78.0063 13.688 78.0039 14.494V15.7406H88.5281L88.9417 21.0135H81.106C80.2846 21.0153 79.4974 21.3359 78.9161 21.9053C78.3349 22.4746 78.0069 23.2465 78.0039 24.0524V25.3013H89.2772L89.7689 31.5548H97.2783L96.7889 25.3013H106.035L105.944 21.0113Z" fill="#E60020"/>
<path d="M102.66 4.62109C102.66 4.62109 102.294 9.54457 106.709 11.188C106.709 11.188 108.179 11.2872 108.179 12.4594C108.177 12.5348 108.181 12.6103 108.193 12.6849V14.3982H109.14V10.3832C109.14 4.93219 102.66 4.62109 102.66 4.62109Z" fill="#E60020"/>
<path d="M116.604 4.62109C116.604 4.62109 116.969 9.54457 112.558 11.188C112.558 11.188 111.087 11.2872 111.087 12.4594C111.088 12.5347 111.085 12.6101 111.075 12.6849V14.3982H110.117V10.3832C110.117 4.93219 116.604 4.62109 116.604 4.62109Z" fill="#E60020"/>
<path d="M147.025 8.69027H141.896C141.629 8.13231 141.205 7.66056 140.674 7.33012C140.144 6.99969 139.528 6.82422 138.9 6.82422C138.271 6.82422 137.656 6.99969 137.125 7.33012C136.595 7.66056 136.171 8.13231 135.903 8.69027H128.403C128.136 8.13231 127.712 7.66056 127.181 7.33012C126.651 6.99969 126.035 6.82422 125.407 6.82422C124.778 6.82422 124.163 6.99969 123.632 7.33012C123.102 7.66056 122.678 8.13231 122.41 8.69027H119.481C119.172 8.69086 118.866 8.75118 118.581 8.8678C118.296 8.98441 118.037 9.15501 117.82 9.36985C117.602 9.58469 117.43 9.83954 117.312 10.1198C117.195 10.4001 117.136 10.7003 117.137 11.0032C117.137 11.0754 117.137 11.152 117.148 11.2286H122.086V12.2251H128.75V11.2286H135.566V12.2747H142.229V11.2286H147.03L147.025 8.69027Z" fill="#E60020"/>
<path d="M117.143 13.0391L122.536 14.6419V16.8444L117.143 15.2393V13.0391Z" fill="#E60020"/>
<path d="M147.024 13.0391L141.631 14.6419V16.8444L147.024 15.2393V13.0391Z" fill="#E60020"/>
<path d="M147.025 24.0043H135.021C134.885 23.3315 134.516 22.7258 133.976 22.2905C133.435 21.8552 132.758 21.6172 132.059 21.6172C131.36 21.6172 130.683 21.8552 130.142 22.2905C129.602 22.7258 129.233 23.3315 129.097 24.0043H119.481C118.857 24.0067 118.26 24.2516 117.821 24.6852C117.382 25.1188 117.136 25.7058 117.137 26.3173C117.137 26.3917 117.137 26.4661 117.148 26.5427H122.238C120.928 29.7619 117.153 29.8611 117.153 29.8611V31.3174H123.313C125.921 31.3174 127.741 27.9359 128.385 26.5427H129.047V31.2498H135.083V26.5404H135.795C136.439 27.9381 138.261 31.3151 140.869 31.3151H147.03V29.8588C147.03 29.8588 143.254 29.7596 141.944 26.5404H147.03L147.025 24.0043Z" fill="#E60020"/>
<path d="M140.6 16.2474C140.602 15.5828 140.344 14.9428 139.88 14.4586C139.416 13.9744 138.781 13.6828 138.105 13.6437H134.982C134.818 13.0044 134.442 12.4371 133.912 12.0317C133.382 11.6264 132.73 11.4062 132.058 11.4062C131.386 11.4062 130.734 11.6264 130.204 12.0317C129.674 12.4371 129.297 13.0044 129.134 13.6437H123.594V22.3229H140.598V16.2474H140.6ZM135.336 15.8732C135.314 15.9968 135.304 16.122 135.304 16.2474V16.9936H129.187V15.8664H135.336V15.8732ZM129.182 19H135.304V20.1271H129.187L129.182 19Z" fill="#E60020"/>
<path d="M122.63 18.7843C122.542 18.5665 122.411 18.3681 122.245 18.2003C122.078 18.0325 121.88 17.8987 121.66 17.8067C121.441 17.7146 121.205 17.6662 120.966 17.6641C120.728 17.6621 120.491 17.7064 120.27 17.7946L117.143 19.0412V22.9097L121.628 21.1062C122.071 20.9243 122.424 20.5795 122.611 20.1456C122.798 19.7116 122.805 19.223 122.63 18.7843Z" fill="#E60020"/>
<path d="M147.024 19.0431L143.899 17.7964C143.678 17.7092 143.441 17.6656 143.203 17.6681C142.965 17.6706 142.729 17.7192 142.51 17.8111C142.291 17.903 142.092 18.0365 141.926 18.2038C141.759 18.3711 141.628 18.569 141.539 18.7861C141.364 19.2245 141.37 19.7129 141.557 20.1468C141.744 20.5808 142.096 20.9257 142.539 21.1081L147.024 22.9115V19.0431Z" fill="#E60020"/>
<path d="M176.979 16.4871H157.992V15.0939H176.409C177.068 15.0969 177.702 14.844 178.171 14.3904C178.641 13.9368 178.909 13.3193 178.916 12.6728V8.16409H155.404C154.525 8.16047 153.681 8.49816 153.055 9.10342C152.429 9.70868 152.072 10.5323 152.063 11.3946V27.0577C152.063 27.0577 152.231 28.9243 150.887 28.9243V31.3297C150.887 31.3297 157.992 32.4568 157.992 22.1184V18.7009H174.306V28.0947C174.306 29.6119 173.13 29.4225 173.13 29.4225H171.62V31.3229H176.988C177.865 31.3242 178.707 30.9857 179.331 30.3812C179.955 29.7767 180.31 28.955 180.32 28.0947V19.7153C180.311 18.8533 179.954 18.0299 179.328 17.425C178.702 16.8201 177.858 16.4829 176.979 16.4871ZM157.992 10.3463H173.316V12.8261H157.992V10.3463Z" fill="#E60020"/>
<path d="M170.297 21.0781H159.244V28.7902H172.827V23.5241C172.818 22.8723 172.547 22.2502 172.074 21.7924C171.601 21.3347 170.964 21.0781 170.299 21.0781H170.297ZM167.526 26.6824H164.499V23.2829H167.027C167.16 23.2817 167.288 23.3322 167.383 23.4235C167.479 23.5147 167.533 23.6393 167.535 23.7698L167.526 26.6824Z" fill="#E60020"/>
<path d="M40.2457 1.65625H3.53516V37.0651H40.2457V1.65625Z" fill="#E60020"/>
<path d="M15.1006 3.26562H12.7039H10.3073L4.00195 14.6117L8.53563 22.9753H10.9323H13.329L8.79528 14.6117L15.1006 3.26562Z" fill="#F5F3F1"/>
<path d="M28.0646 18.7269V14.518H25.9184V12.6875H21.8213V14.518H10.9961L13.3192 18.7269H16.6029C15.9186 19.2319 15.3631 19.8859 14.9803 20.6374C14.5975 21.3889 14.3978 22.2173 14.3969 23.0575C14.4017 23.78 14.5516 24.4945 14.838 25.1602C15.1243 25.8259 15.5416 26.4298 16.0659 26.9372C16.5902 27.4447 17.2113 27.8458 17.8936 28.1177C18.576 28.3897 19.3063 28.527 20.0428 28.522C20.3181 28.5219 20.593 28.5023 20.8654 28.4634C20.2986 29.5941 19.4398 30.5594 18.3745 31.2632H23.8664C25.9505 29.4327 25.9184 26.0467 25.9184 26.0467V18.7269H28.0646ZM20.2771 24.8699C19.9058 24.8699 19.5429 24.7619 19.2341 24.5595C18.9254 24.3572 18.6848 24.0695 18.5427 23.733C18.4006 23.3964 18.3634 23.0261 18.4359 22.6688C18.5083 22.3116 18.6871 21.9834 18.9497 21.7258C19.2122 21.4682 19.5467 21.2928 19.9109 21.2217C20.2751 21.1507 20.6525 21.1872 20.9956 21.3266C21.3386 21.466 21.6318 21.702 21.8381 22.0049C22.0444 22.3078 22.1545 22.6639 22.1545 23.0281C22.1545 23.5166 21.9567 23.9851 21.6046 24.3305C21.2526 24.6759 20.775 24.8699 20.2771 24.8699Z" fill="#F5F3F1"/>
<path d="M32.2144 20.0117H28.0645V27.7441H32.2144V20.0117Z" fill="#F5F3F1"/>
<path d="M39.6304 29.7109V19.5078H35.4804V27.9729C35.4804 27.9729 36.0388 32.3643 32.4473 35.2003H37.5784C40.0026 33.0564 39.6304 29.7109 39.6304 29.7109Z" fill="#F5F3F1"/>
</g>
</g>
<defs>
<clipPath id="clip0_6454_23678">
<rect width="184" height="37" fill="white" transform="translate(0 0.5)"/>
</clipPath>
<clipPath id="clip1_6454_23678">
<rect width="176.786" height="35.4089" fill="white" transform="translate(3.53516 1.65625)"/>
</clipPath>
</defs>
</svg>
