<svg viewBox="0 0 162 30.314" height="30.314" width="162" xmlns:xlink="http://www.w3.org/1999/xlink" xmlns="http://www.w3.org/2000/svg"><defs><clipPath id="a"><rect fill="none" height="30.314" width="162"></rect></clipPath></defs><g clip-path="url(#a)"><path fill="#1a1311" transform="translate(0 -7.493)" d="M6.383,18.741V29.206A5.765,5.765,0,0,0,7.53,33.215a4.7,4.7,0,0,0,3.669,1.27,5.88,5.88,0,0,0,4.058-1.509,4.854,4.854,0,0,0,1.686-3.77v-9.03H13.959a1.812,1.812,0,0,1-1.208-.4,1.405,1.405,0,0,1-.4-1.082,1.683,1.683,0,0,1,.4-1.233A1.971,1.971,0,0,1,14.1,17.08h4.633a1.581,1.581,0,0,1,1.164.36,2.963,2.963,0,0,1,.326,1.755v15l1.008.017a2.737,2.737,0,0,1,1.549.324,1.374,1.374,0,0,1,.457,1.157,1.505,1.505,0,0,1-.442,1.183,1.933,1.933,0,0,1-1.3.4H18.187a1.593,1.593,0,0,1-.923-.249.792.792,0,0,1-.321-.658V34.887a16.409,16.409,0,0,1-3.581,2.21,8.358,8.358,0,0,1-3.144.6,7.09,7.09,0,0,1-5.4-1.91c-1.188-1.268-1.8-3.2-1.8-5.773V20.176l-.454-.013a4.3,4.3,0,0,1-2-.35A1.325,1.325,0,0,1,0,18.606a1.414,1.414,0,0,1,.43-1.142,1.866,1.866,0,0,1,1.312-.384h3.3a1.4,1.4,0,0,1,1.045.308,2.146,2.146,0,0,1,.3,1.353"></path><path fill="#1a1311" transform="translate(-28.385 -7.088)" d="M67.241,33.787H67.7V19.771l-.4-.013a4.507,4.507,0,0,1-2.031-.333A1.317,1.317,0,0,1,64.7,18.2a1.416,1.416,0,0,1,.45-1.166,2.431,2.431,0,0,1,1.484-.36h3.117a1.467,1.467,0,0,1,.914.239.751.751,0,0,1,.328.647v1.5a11.564,11.564,0,0,1,3.141-2.2,7.722,7.722,0,0,1,3.239-.706A6.717,6.717,0,0,1,82.556,18.2a8.192,8.192,0,0,1,1.875,5.683v9.9h1.028a2.85,2.85,0,0,1,1.582.37,1.331,1.331,0,0,1,.465,1.124A1.387,1.387,0,0,1,87,36.5a3.283,3.283,0,0,1-1.826.374H80.361a3.152,3.152,0,0,1-1.792-.339,1.641,1.641,0,0,1-.379-1.248c0-.573.125-.963.433-1.157a3.355,3.355,0,0,1,1.738-.341h.758V24.7a5.866,5.866,0,0,0-1.155-3.913,4.192,4.192,0,0,0-3.355-1.342,5.744,5.744,0,0,0-3.925,1.512A4.8,4.8,0,0,0,71,24.7v9.088h.766a3.516,3.516,0,0,1,1.761.341,1.273,1.273,0,0,1,.448,1.157,1.548,1.548,0,0,1-.393,1.248,3.408,3.408,0,0,1-1.917.339H66.534a1.952,1.952,0,0,1-1.342-.4,1.465,1.465,0,0,1-.443-1.188,1.237,1.237,0,0,1,.509-1.172,4.566,4.566,0,0,1,1.984-.326"></path><path fill="#1a1311" transform="translate(-55.612 0)" d="M134.766,3.434a6.7,6.7,0,0,1,.363-2.848c.255-.4.8-.586,1.64-.586a1.965,1.965,0,0,1,1.585.492,4.392,4.392,0,0,1,.389,2.335,4.171,4.171,0,0,1-.356,2.244,2.247,2.247,0,0,1-1.618.422,2.34,2.34,0,0,1-1.64-.4,2.57,2.57,0,0,1-.363-1.662m3.779,7.039V26.7h6.99a1.776,1.776,0,0,1,1.255.361,1.482,1.482,0,0,1,.4,1.132,1.588,1.588,0,0,1-.381,1.242,2.14,2.14,0,0,1-1.4.35h-16.9a1.881,1.881,0,0,1-1.308-.4,1.528,1.528,0,0,1-.433-1.188,1.363,1.363,0,0,1,.454-1.132,2.077,2.077,0,0,1,1.361-.361h6.657V12.683h-4.249a1.923,1.923,0,0,1-1.349-.42,1.415,1.415,0,0,1-.474-1.15,1.434,1.434,0,0,1,.425-1.143,1.951,1.951,0,0,1,1.314-.384h6.379a1.53,1.53,0,0,1,.928.239.747.747,0,0,1,.333.647"></path><path fill="#1a1311" transform="translate(-80.79 -7.088)" d="M202.012,18.072v-.184a1.616,1.616,0,0,1,.424-1.044,1.771,1.771,0,0,1,1.261-.349,1.381,1.381,0,0,1,1.238.519,4.752,4.752,0,0,1,.334,2.168v4.059a1.634,1.634,0,0,1-.4,1.22,1.754,1.754,0,0,1-1.253.411,1.561,1.561,0,0,1-1.009-.339,5.22,5.22,0,0,1-1.034-1.427,7.561,7.561,0,0,0-2.538-2.659,6.492,6.492,0,0,0-3.433-.908,7.669,7.669,0,0,0-5.513,2.011,6.808,6.808,0,0,0-2.125,5.193,7.289,7.289,0,0,0,2.026,5.319,7.025,7.025,0,0,0,5.238,2.063,8.991,8.991,0,0,0,2.79-.412,9.1,9.1,0,0,0,2.479-1.2c.28-.178.649-.454,1.118-.82a4.161,4.161,0,0,1,2.213-1.151,1.489,1.489,0,0,1,1.109.429,1.513,1.513,0,0,1,.424,1.107c0,1.148-1.092,2.306-3.263,3.517a13.966,13.966,0,0,1-6.9,1.8,10.888,10.888,0,0,1-7.869-3.025,10.1,10.1,0,0,1-3.164-7.584A10.169,10.169,0,0,1,187.3,19.2a10.772,10.772,0,0,1,7.838-3.042,12.7,12.7,0,0,1,3.325.437,19.157,19.157,0,0,1,3.545,1.477"></path><path fill="#1a1311" transform="translate(-108.758 -7.12)" d="M253.821,32.255a7.355,7.355,0,0,1-2.113-5.435,7.356,7.356,0,0,1,7.614-7.606,7.448,7.448,0,0,1,5.489,2.165,7.358,7.358,0,0,1,2.16,5.441,7.336,7.336,0,0,1-2.151,5.423,8.187,8.187,0,0,1-11,.011m13.754-13.062a11.739,11.739,0,0,0-8.253-2.961,11.6,11.6,0,0,0-8.233,2.961,9.948,9.948,0,0,0-3.177,7.628,10.024,10.024,0,0,0,3.177,7.654,12.958,12.958,0,0,0,16.486,0,9.982,9.982,0,0,0,3.183-7.654,9.975,9.975,0,0,0-3.183-7.628"></path></g></svg>