<?xml version="1.0" encoding="UTF-8"?><svg id="_レイヤー_1" xmlns="http://www.w3.org/2000/svg" viewBox="0 0 218.5557169 53.9504802"><path d="M43.7576399,11.3930075v4.2051261h-16.7297229v-4.2051261h16.7297229Z"/><path d="M71.776993,15.7843199c.9983088,1.2628376,1.4974632,2.7096953,1.4974632,4.340573,0,1.4721604-.3611394,2.7695018-1.0834181,3.8874236-.724579,1.1179218-1.771193,1.9920171-3.1375419,2.6222857-1.3686491.6325689-2.9857253.9477033-4.8535289.9477033h-11.8761941V.0391043h11.3632382c1.8678035,0,3.477979.3036331,4.8328266.908599s2.3807594,1.4468577,3.0777354,2.5256752,1.046614,2.3025509,1.046614,3.6688998c0,1.6055749-.4278466,2.9466211-1.2812396,4.0254386-.8556932,1.0788176-1.9943173,1.8402005-3.413572,2.2887494,1.5503689.2898316,2.827008,1.065016,3.8276171,2.3278537ZM57.8466751,11.4046427h5.0513504c1.3157434,0,2.3278537-.2967323,3.0386311-.8878967s1.065016-1.4399569,1.065016-2.5463775c0-1.1041203-.3542386-1.9575133-1.065016-2.5647795-.7107774-.6049659-1.7228877-.9062988-3.0386311-.9062988h-5.0513504v6.9053524ZM66.5485233,22.1376122c.7498817-.6325689,1.1248226-1.5250662,1.1248226-2.6843925,0-1.1823288-.3956431-2.1116301-1.1846291-2.781003-.788986-.6716732-1.854002-1.0075098-3.1973484-1.0075098h-5.4446933v7.4183083h5.5643063c1.3410461,0,2.3876602-.3151343,3.1375419-.945403Z"/><path d="M86.3743836,4.4992903v6.9053524h11.7517041v4.3796772h-11.7517041v7.2986953h12.9363332v4.4992903h-18.459235V0h18.459235v4.4992903h-12.9363332Z"/><path d="M124.7652972,22.3331335h-10.9698953l-1.8148978,5.249172h-5.8012321L116.0841513,0h6.4315008l9.9048793,27.5823055h-5.8403364l-1.8148978-5.249172ZM123.2655338,17.914352l-3.9863344-11.5219555-3.9840341,11.5219555h7.9703685Z"/><path d="M143.9424868.0391043v17.0471575c0,1.8678035.4853529,3.2939589,1.4606592,4.2807664.973006.9868075,2.3393549,1.4813614,4.1036471,1.4813614,1.7872948,0,3.1697454-.4945539,4.1427514-1.4813614s1.4606592-2.4129629,1.4606592-4.2807664V.0391043h5.5620061v17.0080533c0,2.3416552-.5060551,4.3198707-1.5181654,5.9392472-1.0144105,1.6170762-2.3669579,2.8339088-4.0645429,3.6481975-1.697585.816589-3.5837905,1.2237333-5.6632171,1.2237333-2.0518236,0-3.9127263-.4071444-5.5827083-1.2237333-1.669982-.8142887-2.9926261-2.0311213-3.9656321-3.6481975-.973006-1.6193765-1.4606592-3.597592-1.4606592-5.9392472V.0391043h5.525202Z"/><path d="M187.8979764.0391043v4.460186h-7.3400998v23.0830152h-5.5229018V4.4992903h-7.3400998V.0391043h20.2031014Z"/><path d="M218.5557169.0391043l-9.3114146,13.7398912v13.80331h-5.525202v-13.80331L194.3685814.0391043h6.2336792l5.9185449,8.3734064L212.4002462.0391043h6.1554707Z"/><path d="M11.7979985.0390175v19.3359202c0,1.1042141-.2646137,1.973641-.7889975,2.6039468-.5268056.6326001-1.290438.9476893-2.2887301.9476893-1.0259517,0-1.8103606-.3289827-2.3486379-.9868205-.5405716-.6578378-.8234126-1.577995-.8487778-2.7626385h-.0003824v-1.7749258H.0044612v1.7749258h-.0044612c0,2.7374008.8073522,4.8673117,2.4267728,6.3924095,1.6169988,1.5273921,3.7401542,2.2887301,6.371633,2.2887301,2.6039468,0,4.6810879-.7429833,6.2337177-2.2289499s2.3278613-3.5722851,2.3278613-6.2543668V.0390175h-5.5619864Z"/><path d="M32.3409979,42.9749963c.415897-.7535749.9844168-1.3402186,1.7055593-1.760885s1.5252737-.6314767,2.4128704-.6314767c1.0817138,0,2.0084201.256597,2.7805958.769791.7716988.513194,1.3330644,1.2362443,1.6845737,2.1701048h-1.1370395c-.2775826-.6562778-.7001569-1.1694719-1.2686767-1.539582-.5685198-.3691563-1.2553222-.5542114-2.0594533-.5542114-.7120805,0-1.3521422.1659772-1.920662.4988856s-1.0144644.8117623-1.3378338,1.4356078c-.3238464.6238455-.4855311,1.3468958-.4855311,2.1701048s.1616847,1.5443515.4855311,2.1634276c.3233695.6190761.7693141,1.0950683,1.3378338,1.4279767s1.2085814.4988856,1.920662.4988856c.8041311,0,1.4909335-.1821934,2.0594533-.5475341s.991094-.8709036,1.2686767-1.5185964h1.1370395c-.3515093.9252755-.9152596,1.6416485-1.6917279,2.1500731s-1.7012668.7621599-2.7734416.7621599c-.8875967,0-1.6917279-.2098563-2.4128704-.6305228s-1.2896623-1.0054024-1.7055593-1.7542078-.6238455-1.5996773-.6238455-2.5516617.2079485-1.8047641.6238455-2.5583389Z"/><path d="M45.9096378,50.0194904c-.5685198-.3195539-1.0168491-.7716988-1.344988-1.3592964-.3286159-.5866437-.4922084-1.2734461-.4922084-2.0594533,0-.7850533.1659772-1.4718557.4988856-2.0584994.3329084-.5875976.7860072-1.0406964,1.3592964-1.3592964.5728123-.3186,1.2152587-.4788539,1.9273392-.4788539.7116036,0,1.3564347.1602539,1.9344934.4788539.5775817.3186,1.0306805.7716988,1.3588195,1.3592964.3281389.5866437.4922084,1.2734461.4922084,2.0584994,0,.7764683-.1664542,1.4613629-.4988856,2.0527761-.3329084.5914132-.7907767,1.0464198-1.3731279,1.3659737-.5823512.3186-1.2295671.4779-1.9411707.4779-.7120805,0-1.3521422-.1593-1.920662-.4779ZM49.2167821,49.3117023c.4254359-.2260725.769791-.5685198,1.0330653-1.0254341.2637512-.4578683.3953883-1.0197108.3953883-1.6855276,0-.6648629-.1297293-1.2267054-.3882341-1.6845737-.2589817-.4578683-.6009521-.7993617-1.026388-1.026388-.424959-.2260725-.8871198-.3395856-1.3864823-.3395856s-.9615234.1135132-1.3869593.3395856c-.424959.2270263-.7650216.5685198-1.0192338,1.026388s-.3810799,1.0197108-.3810799,1.6845737c0,.6658168.1268677,1.2276593.3810799,1.6855276.2542123.4569144.5918901.7993617,1.0125566,1.0254341.4206665.2270263.8804425.3405395,1.3798051.3405395.4988856,0,.9610464-.1135132,1.3864823-.3405395Z"/><path d="M55.5611193,49.8945305c-.5499189-.4025425-.8575491-.9500767-.9219368-1.6435563h.9982482c.0462638.4254359.2470581.769791.6033368,1.0330653.3558018.2632743.8341787.3958653,1.4351308.3958653.5270255,0,.9405377-.1249599,1.2410138-.3748796s.4507141-.5589808.4507141-.929091c0-.2585048-.0829886-.4712228-.2494428-.6381539-.1664542-.1659772-.3767874-.2976144-.6309997-.3949114-.2546892-.097297-.5985674-.2012713-1.0330653-.3119228-.5642272-.1478533-1.0216186-.2957066-1.3731279-.4435599s-.6496006-.3672485-.894274-.6591395c-.2451503-.2909371-.3672485-.681079-.3672485-1.1713796,0-.3701102.1106515-.7116036.3324314-1.026388.2222569-.3138305.5360874-.5637503.9429225-.7488054s.8689958-.2775826,1.3869593-.2775826c.8131931,0,1.4699479.2060407,1.9688335.6171683.4993626.4120814.7674063.9777395.8046081,1.698882h-.9705853c-.0281398-.4435599-.2012713-.8022234-.5203482-1.0750365-.3186-.2718593-.7554826-.4082659-1.310171-.4082659-.4903006,0-.8875967.115421-1.1928422.3462629-.3047686.2308419-.4573913.5179635-.4573913.8594569,0,.2966605.0901428.5389491.2704284.7287737.1802856.1888707.4044503.336724.672494.4435599.2680437.105882.628615.2241647,1.0817138.3529401.5451494.1488072.9796473.291891,1.3034937.4302054.3233695.1383144.6004752.3424473.831794.610491.2308419.2680437.3515093.6238455.3605713,1.0674054,0,.407312-.1106515.769791-.3329084,1.088391-.2217799.3195539-.531318.5713814-.929091.7564365-.3972961.1841012-.8551644.2766287-1.3726509.2766287-.8689958,0-1.5786916-.2003174-2.1286105-.6028599Z"/><path d="M74.574303,43.5158532c.5589808.5589808.8389482,1.3707431.8389482,2.4333791v4.4375066h-.9572308v-4.3268551c0-.8222551-.1988865-1.4508701-.5961826-1.8858449-.3972961-.434021-.938153-.6515084-1.6220937-.6515084-.7120805,0-1.2806003.2356114-1.7060362.7068341-.424959.4721766-.637677,1.1561174-.637677,2.0527761v4.1045982h-.9567539v-4.3268551c0-.8222551-.1988865-1.4508701-.5961826-1.8858449-.3977731-.434021-.9429225-.6515084-1.6364021-.6515084-.7120805,0-1.2806003.2356114-1.7055593.7068341-.4254359.4721766-.6381539,1.1561174-.6381539,2.0527761v4.1045982h-.9705853v-7.5710426h.9705853v1.3030168c.2403808-.4712228.5823512-.8298862,1.026388-1.0740826.4435599-.2451503.938153-.3682024,1.4837794-.3682024.6562778,0,1.2314749.1573922,1.726068.4721766.4945931.3138305.8532566.7764683,1.0750365,1.3860054.203179-.6009521.5523036-1.0607282,1.0468967-1.3793282.4945931-.3195539,1.0559587-.4788539,1.6845737-.4788539.8875967,0,1.611124.2804443,2.1705818.8394252Z"/><path d="M85.7705786,46.9756203h-6.2818572c.0276629.5732892.1664542,1.0626359.415897,1.4699479.2494428.4063581.5775817.7135114.9844168.9224138.406835.2079485.8503949.3119228,1.3316335.3119228.628138,0,1.1575482-.1526228,1.5877536-.4578683.4297284-.3052455.7139883-.7163731.8527796-1.2343365h1.0259111c-.1850551.7402204-.5799665,1.3430802-1.185688,1.8095335-.6052446.4674072-1.3659737.7001569-2.2807563.7001569-.7120805,0-1.3502344-.1593-1.9139847-.4779-.5637503-.3195539-1.0054024-.7716988-1.3240024-1.3592964-.3190769-.5866437-.4783769-1.2734461-.4783769-2.0594533,0-.7850533.1569153-1.4737635.4712228-2.0661306.3143075-.5914132.7535749-1.044512,1.3173252-1.3583425.5637503-.3147844,1.2066737-.4721766,1.9278162-.4721766.7206656,0,1.3516653.1573922,1.8925222.4721766.5408569.3138305.9567539.7373587,1.248168,1.2686767s.4368826,1.1208234.4368826,1.7675623c0,.3329084-.0095389.5875976-.0276629.7631138ZM84.4737622,44.7425586c-.2356114-.3968192-.5570731-.6972952-.9634311-.9014281-.407312-.203179-.8508719-.3042916-1.3316335-.3042916-.7211425,0-1.3359261.2308419-1.8443506.6925258-.5084246.4626377-.7902997,1.1141461-.8456255,1.9554791h5.3251033c.009062-.5637503-.1044512-1.044512-.3400626-1.442285Z"/><path d="M101.7349867,50.3867389l-1.3173252-1.344988c-.4716997.5179635-.9758317.8995204-1.5119192,1.1437168-.5360874.2451503-1.141809.3672485-1.8162108.3672485-.6472159,0-1.2205051-.1220982-1.7198677-.3672485-.4988856-.2441964-.8871198-.5895054-1.1647024-1.0330653-.2771057-.4435599-.415897-.9567539-.415897-1.5386282,0-.6848946.1941171-1.2810773.5823512-1.7895018s.9567539-.9052437,1.7055593-1.1923653c-.3233695-.3605713-.5594578-.6953874-.7073111-1.0054024s-.2217799-.6448311-.2217799-1.0054024c0-.6190761.2217799-1.1208234.6658168-1.504288.4435599-.3834647,1.0349731-.575197,1.7747165-.575197.6934796,0,1.2572299.1984096,1.6917279.5961826.4344979.3968192.6381539.9147826.610491,1.5529365h-.9705853c.009062-.415897-.1182826-.7440359-.3815569-.9844168s-.5942749-.3605713-.991571-.3605713c-.4254359,0-.769791.1173287-1.0330653.3529401-.2632743.2365653-.3953883.5389491-.3953883.9090593,0,.2957066.0810808.5818743.2427656.8594569s.4182817.6057216.769791.9844168l3.1893386,3.230833c.1292524-.1755162.3052455-.4530988.5270255-.831794l.8875967-1.4833024h1.0397425l-1.053574,1.8162108c-.2499198.4349749-.4993626.823209-.7488054,1.1647024l2.0241593,2.0384677h-1.2615225ZM98.5523253,49.3880137c.4297284-.212718.8389482-.5446725,1.2271823-.9977713l-3.0925186-3.1344898c-1.2848928.4712228-1.9273392,1.2486449-1.9273392,2.3294048,0,.407312.0992048.769791.2980913,1.0893449.1988865.3186.4736075.5704275.8251168.7554826s.7535749.2775826,1.2066737.2775826c.5451494,0,1.0330653-.1068359,1.4627937-.3195539Z"/><path d="M111.6655535,49.5959622h5.4694671v.7907767h-6.4400524v-9.6934528h.9705853v8.9026761Z"/><path d="M121.3429691,41.1788173c-.1387913-.1383144-.2079485-.3090611-.2079485-.513194,0-.203179.0691572-.372018.2079485-.5055629.1387913-.1344988.3052455-.2012713.4993626-.2012713s.3605713.0667725.4988856.2012713c.1387913.1335449.2079485.3023838.2079485.5055629,0,.2041329-.0691572.3748796-.2079485.513194-.1383144.1392683-.3047686.2079485-.4988856.2079485s-.3605713-.0686802-.4993626-.2079485ZM122.3273859,42.8156963v7.5710426h-.9705853v-7.5710426h.9705853Z"/><path d="M130.3346871,43.633182h-1.760885v6.7535569h-.9710623v-6.7535569h-1.053574v-.8174856h1.053574v-.5275024c0-.8222551.2103332-1.4279767.6309997-1.8162108s1.1026994-.5828281,2.0456219-.5828281v.8327479c-.6290919,0-1.0702671.1201904-1.3244793.3596174-.2542123.2413347-.3810799.6429234-.3810799,1.2066737v.5275024h1.760885v.8174856Z"/><path d="M141.6009611,46.9756203h-6.2818572c.0276629.5732892.1664542,1.0626359.415897,1.4699479.2494428.4063581.5775817.7135114.9844168.9224138.406835.2079485.8503949.3119228,1.3316335.3119228.628138,0,1.1575482-.1526228,1.5877536-.4578683.4297284-.3052455.7139883-.7163731.8527796-1.2343365h1.0259111c-.1850551.7402204-.5799665,1.3430802-1.185688,1.8095335-.6052446.4674072-1.3659737.7001569-2.2807563.7001569-.7120805,0-1.3502344-.1593-1.9139847-.4779-.5637503-.3195539-1.0054024-.7716988-1.3240024-1.3592964-.3190769-.5866437-.4783769-1.2734461-.4783769-2.0594533,0-.7850533.1569153-1.4737635.4712228-2.0661306.3143075-.5914132.7535749-1.044512,1.3173252-1.3583425.5637503-.3147844,1.2066737-.4721766,1.9278162-.4721766.7206656,0,1.3516653.1573922,1.8925222.4721766.5408569.3138305.9567539.7373587,1.248168,1.2686767s.4368826,1.1208234.4368826,1.7675623c0,.3329084-.0095389.5875976-.0276629.7631138ZM140.3041446,44.7425586c-.2356114-.3968192-.5570731-.6972952-.9634311-.9014281-.407312-.203179-.8508719-.3042916-1.3316335-.3042916-.7211425,0-1.3359261.2308419-1.8443506.6925258-.5084246.4626377-.7902997,1.1141461-.8456255,1.9554791h5.3251033c.009062-.5637503-.1044512-1.044512-.3400626-1.442285Z"/><path d="M146.5505608,49.8945305c-.5499189-.4025425-.8575491-.9500767-.9219368-1.6435563h.9982482c.0462638.4254359.2470581.769791.6033368,1.0330653.3558018.2632743.8341787.3958653,1.4351308.3958653.5270255,0,.9405377-.1249599,1.2410138-.3748796s.4507141-.5589808.4507141-.929091c0-.2585048-.0829886-.4712228-.2494428-.6381539-.1664542-.1659772-.3767874-.2976144-.6309997-.3949114-.2546892-.097297-.5985674-.2012713-1.0330653-.3119228-.5642272-.1478533-1.0216186-.2957066-1.3731279-.4435599s-.6496006-.3672485-.894274-.6591395c-.2451503-.2909371-.3672485-.681079-.3672485-1.1713796,0-.3701102.1106515-.7116036.3324314-1.026388.2222569-.3138305.5360874-.5637503.9429225-.7488054s.8689958-.2775826,1.3869593-.2775826c.8131931,0,1.4699479.2060407,1.9688335.6171683.4993626.4120814.7674063.9777395.8046081,1.698882h-.9705853c-.0281398-.4435599-.2012713-.8022234-.5203482-1.0750365-.3186-.2718593-.7554826-.4082659-1.310171-.4082659-.4903006,0-.8875967.115421-1.1928422.3462629-.3047686.2308419-.4573913.5179635-.4573913.8594569,0,.2966605.0901428.5389491.2704284.7287737.1802856.1888707.4044503.336724.672494.4435599.2680437.105882.628615.2241647,1.0817138.3529401.5451494.1488072.9796473.291891,1.3034937.4302054.3233695.1383144.6004752.3424473.831794.610491.2308419.2680437.3515093.6238455.3605713,1.0674054,0,.407312-.1106515.769791-.3329084,1.088391-.2217799.3195539-.531318.5713814-.929091.7564365-.3972961.1841012-.8551644.2766287-1.3726509.2766287-.8689958,0-1.5786916-.2003174-2.1286105-.6028599Z"/><path d="M157.3522893,43.633182v4.7007809c0,.4626377.0877581.7821916.2632743.9577078s.4855311.2632743.929091.2632743h.8875967v.831794h-1.0402195c-.6839407,0-1.1923653-.1593-1.5252737-.4788539-.3329084-.3186-.4993626-.8432407-.4993626-1.5739222v-4.7007809h-1.053574v-.8174856h1.053574v-1.9001533h.9848937v1.9001533h2.079962v.8174856h-2.079962Z"/><path d="M170.5740424,42.8156963l-4.4933093,11.1347839h-1.0120796l1.4699479-3.6057126-3.10635-7.5290713h1.0678823l2.5793246,6.4616659,2.495859-6.4616659h.9987252Z"/><path d="M175.5446277,40.1247664v10.2619725h-.9705853v-10.2619725h.9705853Z"/><path d="M186.8109017,46.9756203h-6.2818572c.0276629.5732892.1664542,1.0626359.415897,1.4699479.2494428.4063581.5775817.7135114.9844168.9224138.406835.2079485.8503949.3119228,1.3316335.3119228.628138,0,1.1575482-.1526228,1.5877536-.4578683.4297284-.3052455.7139883-.7163731.8527796-1.2343365h1.0259111c-.1850551.7402204-.5799665,1.3430802-1.185688,1.8095335-.6052446.4674072-1.3659737.7001569-2.2807563.7001569-.7120805,0-1.3502344-.1593-1.9139847-.4779-.5637503-.3195539-1.0054024-.7716988-1.3240024-1.3592964-.3190769-.5866437-.4783769-1.2734461-.4783769-2.0594533,0-.7850533.1569153-1.4737635.4712228-2.0661306.3143075-.5914132.7535749-1.044512,1.3173252-1.3583425.5637503-.3147844,1.2066737-.4721766,1.9278162-.4721766.7206656,0,1.3516653.1573922,1.8925222.4721766.5408569.3138305.9567539.7373587,1.248168,1.2686767s.4368826,1.1208234.4368826,1.7675623c0,.3329084-.0095389.5875976-.0276629.7631138ZM185.5140852,44.7425586c-.2356114-.3968192-.5570731-.6972952-.9634311-.9014281-.407312-.203179-.8508719-.3042916-1.3316335-.3042916-.7211425,0-1.3359261.2308419-1.8443506.6925258-.5084246.4626377-.7902997,1.1141461-.8456255,1.9554791h5.3251033c.009062-.5637503-.1044512-1.044512-.3400626-1.442285Z"/></svg>