<?xml version="1.0" encoding="UTF-8"?>
<svg id="_レイヤー_1" xmlns="http://www.w3.org/2000/svg" version="1.1" viewBox="0 0 218.6 54">
  <!-- Generator: Adobe Illustrator 29.4.0, SVG Export Plug-In . SVG Version: 2.1.0 Build 152)  -->
  <defs>
    <style>
      .st0 {
        fill: #fff;
      }
    </style>
  </defs>
  <path class="st0" d="M43.8,11.4v4.2h-16.7v-4.2h16.7Z"/>
  <path class="st0" d="M71.8,15.8c1,1.3,1.5,2.7,1.5,4.3s-.4,2.8-1.1,3.9c-.7,1.1-1.8,2-3.1,2.6-1.4.6-3,.9-4.9.9h-11.9V0h11.4c1.9,0,3.5.3,4.8.9,1.4.6,2.4,1.4,3.1,2.5.7,1.1,1,2.3,1,3.7s-.4,2.9-1.3,4c-.9,1.1-2,1.8-3.4,2.3,1.6.3,2.8,1.1,3.8,2.3ZM57.8,11.4h5.1c1.3,0,2.3-.3,3-.9s1.1-1.4,1.1-2.5-.4-2-1.1-2.6c-.7-.6-1.7-.9-3-.9h-5.1s0,6.9,0,6.9ZM66.5,22.1c.7-.6,1.1-1.5,1.1-2.7s-.4-2.1-1.2-2.8c-.8-.7-1.9-1-3.2-1h-5.4v7.4h5.6c1.3,0,2.4-.3,3.1-.9Z"/>
  <path class="st0" d="M86.4,4.5v6.9h11.8v4.4h-11.8v7.3h12.9v4.5h-18.5V0h18.5v4.5h-12.9Z"/>
  <path class="st0" d="M124.8,22.3h-11l-1.8,5.2h-5.8L116.1,0h6.4l9.9,27.6h-5.8l-1.8-5.2ZM123.3,17.9l-4-11.5-4,11.5h8Z"/>
  <path class="st0" d="M143.9,0v17c0,1.9.5,3.3,1.5,4.3,1,1,2.3,1.5,4.1,1.5s3.2-.5,4.1-1.5,1.5-2.4,1.5-4.3V0h5.6v17c0,2.3-.5,4.3-1.5,5.9-1,1.6-2.4,2.8-4.1,3.6-1.7.8-3.6,1.2-5.7,1.2s-3.9-.4-5.6-1.2c-1.7-.8-3-2-4-3.6-1-1.6-1.5-3.6-1.5-5.9V0h5.5,0Z"/>
  <path class="st0" d="M187.9,0v4.5h-7.3v23.1h-5.5V4.5h-7.3V0h20.2Z"/>
  <path class="st0" d="M218.6,0l-9.3,13.7v13.8h-5.5v-13.8L194.4,0h6.2l5.9,8.4L212.4,0h6.2,0Z"/>
  <path class="st0" d="M11.8,0v19.3c0,1.1-.3,2-.8,2.6-.5.6-1.3.9-2.3.9s-1.8-.3-2.3-1c-.5-.7-.8-1.6-.8-2.8h0v-1.8H0v1.8h0c0,2.7.8,4.9,2.4,6.4,1.6,1.5,3.7,2.3,6.4,2.3s4.7-.7,6.2-2.2,2.3-3.6,2.3-6.3V0h-5.6Z"/>
  <path class="st0" d="M32.3,43c.4-.8,1-1.3,1.7-1.8s1.5-.6,2.4-.6,2,.3,2.8.8c.8.5,1.3,1.2,1.7,2.2h-1.1c-.3-.7-.7-1.2-1.3-1.5-.6-.4-1.3-.6-2.1-.6s-1.4.2-1.9.5-1,.8-1.3,1.4c-.3.6-.5,1.3-.5,2.2s.2,1.5.5,2.2c.3.6.8,1.1,1.3,1.4s1.2.5,1.9.5,1.5-.2,2.1-.5,1-.9,1.3-1.5h1.1c-.4.9-.9,1.6-1.7,2.2s-1.7.8-2.8.8-1.7-.2-2.4-.6-1.3-1-1.7-1.8-.6-1.6-.6-2.6.2-1.8.6-2.6Z"/>
  <path class="st0" d="M45.9,50c-.6-.3-1-.8-1.3-1.4-.3-.6-.5-1.3-.5-2.1s.2-1.5.5-2.1c.3-.6.8-1,1.4-1.4.6-.3,1.2-.5,1.9-.5s1.4.2,1.9.5c.6.3,1,.8,1.4,1.4.3.6.5,1.3.5,2.1s-.2,1.5-.5,2.1c-.3.6-.8,1-1.4,1.4-.6.3-1.2.5-1.9.5s-1.4-.2-1.9-.5ZM49.2,49.3c.4-.2.8-.6,1-1,.3-.5.4-1,.4-1.7s-.1-1.2-.4-1.7c-.3-.5-.6-.8-1-1-.4-.2-.9-.3-1.4-.3s-1,.1-1.4.3c-.4.2-.8.6-1,1s-.4,1-.4,1.7.1,1.2.4,1.7c.3.5.6.8,1,1,.4.2.9.3,1.4.3s1-.1,1.4-.3Z"/>
  <path class="st0" d="M55.6,49.9c-.5-.4-.9-1-.9-1.6h1c0,.4.2.8.6,1,.4.3.8.4,1.4.4s.9-.1,1.2-.4.5-.6.5-.9,0-.5-.2-.6c-.2-.2-.4-.3-.6-.4-.3,0-.6-.2-1-.3-.6-.1-1-.3-1.4-.4s-.6-.4-.9-.7c-.2-.3-.4-.7-.4-1.2s.1-.7.3-1c.2-.3.5-.6.9-.7s.9-.3,1.4-.3c.8,0,1.5.2,2,.6.5.4.8,1,.8,1.7h-1c0-.4-.2-.8-.5-1.1-.3-.3-.8-.4-1.3-.4s-.9.1-1.2.3c-.3.2-.5.5-.5.9s0,.5.3.7c.2.2.4.3.7.4.3.1.6.2,1.1.4.5.1,1,.3,1.3.4.3.1.6.3.8.6.2.3.4.6.4,1.1,0,.4-.1.8-.3,1.1-.2.3-.5.6-.9.8-.4.2-.9.3-1.4.3-.9,0-1.6-.2-2.1-.6h0Z"/>
  <path class="st0" d="M74.6,43.5c.6.6.8,1.4.8,2.4v4.4h-1v-4.3c0-.8-.2-1.5-.6-1.9-.4-.4-.9-.7-1.6-.7s-1.3.2-1.7.7c-.4.5-.6,1.2-.6,2.1v4.1h-1v-4.3c0-.8-.2-1.5-.6-1.9-.4-.4-.9-.7-1.6-.7s-1.3.2-1.7.7c-.4.5-.6,1.2-.6,2.1v4.1h-1v-7.6h1v1.3c.2-.5.6-.8,1-1.1.4-.2.9-.4,1.5-.4s1.2.2,1.7.5c.5.3.9.8,1.1,1.4.2-.6.6-1.1,1-1.4.5-.3,1.1-.5,1.7-.5s1.6.3,2.2.8Z"/>
  <path class="st0" d="M85.8,47h-6.3c0,.6.2,1.1.4,1.5.2.4.6.7,1,.9.4.2.9.3,1.3.3s1.2-.2,1.6-.5c.4-.3.7-.7.9-1.2h1c-.2.7-.6,1.3-1.2,1.8-.6.5-1.4.7-2.3.7s-1.4-.2-1.9-.5c-.6-.3-1-.8-1.3-1.4-.3-.6-.5-1.3-.5-2.1s.2-1.5.5-2.1c.3-.6.8-1,1.3-1.4.6-.3,1.2-.5,1.9-.5s1.4.2,1.9.5c.5.3,1,.7,1.2,1.3s.4,1.1.4,1.8,0,.6,0,.8ZM84.5,44.7c-.2-.4-.6-.7-1-.9-.4-.2-.9-.3-1.3-.3-.7,0-1.3.2-1.8.7-.5.5-.8,1.1-.8,2h5.3c0-.6-.1-1-.3-1.4Z"/>
  <path class="st0" d="M101.7,50.4l-1.3-1.3c-.5.5-1,.9-1.5,1.1-.5.2-1.1.4-1.8.4s-1.2-.1-1.7-.4c-.5-.2-.9-.6-1.2-1-.3-.4-.4-1-.4-1.5s.2-1.3.6-1.8,1-.9,1.7-1.2c-.3-.4-.6-.7-.7-1s-.2-.6-.2-1c0-.6.2-1.1.7-1.5.4-.4,1-.6,1.8-.6s1.3.2,1.7.6c.4.4.6.9.6,1.6h-1c0-.4-.1-.7-.4-1s-.6-.4-1-.4-.8.1-1,.4c-.3.2-.4.5-.4.9s0,.6.2.9.4.6.8,1l3.2,3.2c.1-.2.3-.5.5-.8l.9-1.5h1l-1.1,1.8c-.2.4-.5.8-.7,1.2l2,2h-1.3ZM98.6,49.4c.4-.2.8-.5,1.2-1l-3.1-3.1c-1.3.5-1.9,1.2-1.9,2.3s0,.8.3,1.1c.2.3.5.6.8.8s.8.3,1.2.3,1-.1,1.5-.3Z"/>
  <path class="st0" d="M111.7,49.6h5.5v.8h-6.4v-9.7h1v8.9Z"/>
  <path class="st0" d="M121.3,41.2c-.1-.1-.2-.3-.2-.5s0-.4.2-.5c.1-.1.3-.2.5-.2s.4,0,.5.2c.1.1.2.3.2.5s0,.4-.2.5c-.1.1-.3.2-.5.2s-.4,0-.5-.2ZM122.3,42.8v7.6h-1v-7.6h1Z"/>
  <path class="st0" d="M130.3,43.6h-1.8v6.8h-1v-6.8h-1.1v-.8h1.1v-.5c0-.8.2-1.4.6-1.8s1.1-.6,2-.6v.8c-.6,0-1.1.1-1.3.4-.3.2-.4.6-.4,1.2v.5h1.8v.8h0Z"/>
  <path class="st0" d="M141.6,47h-6.3c0,.6.2,1.1.4,1.5.2.4.6.7,1,.9.4.2.9.3,1.3.3s1.2-.2,1.6-.5c.4-.3.7-.7.9-1.2h1c-.2.7-.6,1.3-1.2,1.8-.6.5-1.4.7-2.3.7s-1.4-.2-1.9-.5c-.6-.3-1-.8-1.3-1.4-.3-.6-.5-1.3-.5-2.1s.2-1.5.5-2.1c.3-.6.8-1,1.3-1.4.6-.3,1.2-.5,1.9-.5s1.4.2,1.9.5c.5.3,1,.7,1.2,1.3s.4,1.1.4,1.8,0,.6,0,.8h0ZM140.3,44.7c-.2-.4-.6-.7-1-.9-.4-.2-.9-.3-1.3-.3-.7,0-1.3.2-1.8.7-.5.5-.8,1.1-.8,2h5.3c0-.6-.1-1-.3-1.4h0Z"/>
  <path class="st0" d="M146.6,49.9c-.5-.4-.9-1-.9-1.6h1c0,.4.2.8.6,1,.4.3.8.4,1.4.4s.9-.1,1.2-.4.5-.6.5-.9,0-.5-.2-.6c-.2-.2-.4-.3-.6-.4-.3,0-.6-.2-1-.3-.6-.1-1-.3-1.4-.4s-.6-.4-.9-.7c-.2-.3-.4-.7-.4-1.2s.1-.7.3-1c.2-.3.5-.6.9-.7s.9-.3,1.4-.3c.8,0,1.5.2,2,.6.5.4.8,1,.8,1.7h-1c0-.4-.2-.8-.5-1.1-.3-.3-.8-.4-1.3-.4s-.9.1-1.2.3c-.3.2-.5.5-.5.9s0,.5.3.7c.2.2.4.3.7.4.3.1.6.2,1.1.4.5.1,1,.3,1.3.4.3.1.6.3.8.6.2.3.4.6.4,1.1,0,.4-.1.8-.3,1.1-.2.3-.5.6-.9.8-.4.2-.9.3-1.4.3-.9,0-1.6-.2-2.1-.6h0Z"/>
  <path class="st0" d="M157.4,43.6v4.7c0,.5,0,.8.3,1s.5.3.9.3h.9v.8h-1c-.7,0-1.2-.2-1.5-.5-.3-.3-.5-.8-.5-1.6v-4.7h-1.1v-.8h1.1v-1.9h1v1.9h2.1v.8h-2.1Z"/>
  <path class="st0" d="M170.6,42.8l-4.5,11.1h-1l1.5-3.6-3.1-7.5h1.1l2.6,6.5,2.5-6.5h1Z"/>
  <path class="st0" d="M175.5,40.1v10.3h-1v-10.3s1,0,1,0Z"/>
  <path class="st0" d="M186.8,47h-6.3c0,.6.2,1.1.4,1.5.2.4.6.7,1,.9.4.2.9.3,1.3.3s1.2-.2,1.6-.5c.4-.3.7-.7.9-1.2h1c-.2.7-.6,1.3-1.2,1.8-.6.5-1.4.7-2.3.7s-1.4-.2-1.9-.5c-.6-.3-1-.8-1.3-1.4-.3-.6-.5-1.3-.5-2.1s.2-1.5.5-2.1c.3-.6.8-1,1.3-1.4.6-.3,1.2-.5,1.9-.5s1.4.2,1.9.5c.5.3,1,.7,1.2,1.3s.4,1.1.4,1.8,0,.6,0,.8h0ZM185.5,44.7c-.2-.4-.6-.7-1-.9-.4-.2-.9-.3-1.3-.3-.7,0-1.3.2-1.8.7-.5.5-.8,1.1-.8,2h5.3c0-.6-.1-1-.3-1.4h0Z"/>
</svg>